<svg width="41" height="41" viewBox="0 0 41 41" fill="none" xmlns="http://www.w3.org/2000/svg">
<path d="M30.5 13.8333H33.8333C34.7538 13.8333 35.5 14.5795 35.5 15.5V35.5C35.5 36.4205 34.7538 37.1666 33.8333 37.1666H7.16667C6.2462 37.1666 5.5 36.4205 5.5 35.5V15.5C5.5 14.5795 6.2462 13.8333 7.16667 13.8333H10.5V12.1666C10.5 6.64378 14.9771 2.16663 20.5 2.16663C26.0228 2.16663 30.5 6.64378 30.5 12.1666V13.8333ZM18.8333 26.7206V30.5H22.1667V26.7206C23.163 26.1443 23.8333 25.0671 23.8333 23.8333C23.8333 21.9923 22.341 20.5 20.5 20.5C18.659 20.5 17.1667 21.9923 17.1667 23.8333C17.1667 25.0671 17.837 26.1443 18.8333 26.7206ZM27.1667 13.8333V12.1666C27.1667 8.48473 24.1818 5.49996 20.5 5.49996C16.8181 5.49996 13.8333 8.48473 13.8333 12.1666V13.8333H27.1667Z" fill="#F5F5F5" fill-opacity="0.4"/>
</svg>
