<svg width="41" height="41" viewBox="0 0 41 41" fill="none" xmlns="http://www.w3.org/2000/svg">
<path d="M12.1665 19.6666C8.02437 19.6666 4.6665 16.3088 4.6665 12.1666C4.6665 8.02449 8.02437 4.66663 12.1665 4.66663C16.3086 4.66663 19.6665 8.02449 19.6665 12.1666C19.6665 16.3088 16.3086 19.6666 12.1665 19.6666ZM12.1665 36.3333C8.02437 36.3333 4.6665 32.9755 4.6665 28.8333C4.6665 24.6911 8.02437 21.3333 12.1665 21.3333C16.3086 21.3333 19.6665 24.6911 19.6665 28.8333C19.6665 32.9755 16.3086 36.3333 12.1665 36.3333ZM28.8332 19.6666C24.691 19.6666 21.3332 16.3088 21.3332 12.1666C21.3332 8.02449 24.691 4.66663 28.8332 4.66663C32.9753 4.66663 36.3332 8.02449 36.3332 12.1666C36.3332 16.3088 32.9753 19.6666 28.8332 19.6666ZM28.8332 36.3333C24.691 36.3333 21.3332 32.9755 21.3332 28.8333C21.3332 24.6911 24.691 21.3333 28.8332 21.3333C32.9753 21.3333 36.3332 24.6911 36.3332 28.8333C36.3332 32.9755 32.9753 36.3333 28.8332 36.3333Z" fill="#F5F5F5" fill-opacity="0.4"/>
</svg>
